<?xml version="1.0" encoding="utf-8"?>
<!-- Generator: Adobe Illustrator 19.0.0, SVG Export Plug-In . SVG Version: 6.00 Build 0)  -->
<svg version="1.1" id="Layer_1" xmlns="http://www.w3.org/2000/svg" xmlns:xlink="http://www.w3.org/1999/xlink" x="0px" y="0px"
	 viewBox="0 0 500 500" style="enable-background:new 0 0 500 500;" xml:space="preserve">
<style type="text/css">
	.st0{fill:#fff;}
</style>
<g id="XMLID_1_">
	<path id="XMLID_2_" class="st0" d="M432.5,285.4c0,5.8-4.7,10.4-10.4,10.4s-10.4-4.7-10.4-10.4c0-5.8,4.7-10.5,10.4-10.5
		S432.5,279.6,432.5,285.4z M265.2,233v47.6H259v15.3h24.4V233H265.2z M103.8,240.6c-8.4-3.1-14.8-5.9-14.8-11.9
		c0-5.6,4.6-9.1,11.9-9.1c4.5,0,7.5,0.9,9.4,1.8c-0.3,0.9-0.5,1.9-0.5,3.4c0,5,3.9,10.4,11,10.4c6.2,0,10.4-4.5,10.4-11.3
		c0-11.4-13.3-20.3-30.2-20.3c-17.8,0-30.2,10.8-30.2,26.2c0,16.9,11.8,22.5,28.4,28.5c9.1,3.2,14.8,6.3,14.8,12.1
		c0,6.4-5.1,10.1-13.9,10.1c-4.5,0-8.7-1-11.7-2.7c0.5-1.4,0.8-2.9,0.8-4.7c0-4.9-4.2-10.1-11-10.1c-6.3,0-10.6,4.9-10.6,11.8
		c0,11.8,14.8,21.7,32.4,21.7c19.5,0,32-10.7,32-27.4C132,252,119.7,246.3,103.8,240.6z M154.7,264.2c0-12.1,7.9-16.5,13.1-16.5
		c4.2,0,6.9,1.5,8.2,2.5c-0.8,1.4-1.4,3.2-1.4,4.7c0,5.6,4.7,10.3,10.2,10.3c6.3,0,10.8-4.7,10.8-11.3c0-10.1-11.1-20.9-27.7-20.9
		c-19,0-30.7,16.1-30.7,30.9c0,18.8,13.7,32,33.3,32h22.7v-15.3h-21.5C161.7,280.7,154.7,273.9,154.7,264.2z M244.5,233
		c-5.9,0-11.3,3.5-16.7,10.6v-9.5h-25.5v15.3h8.5v31.3h-8.5v15.2h36v-15.2h-10v-21.4c2.2-4,5.8-7.6,9.2-9.3c1.6,2.5,4.6,4.7,9.1,4.7
		c5.6,0,10.1-4.7,10.1-10.5C256.7,238.6,253,233,244.5,233z M321.2,233h-10.8v-24h-17.7v86.9c0,0,20.3,0,27.6,0
		c16.3,0,29.2-13.9,29.2-31.7C349.5,246.1,337.6,233,321.2,233z M310.4,248.5h7.6c8.2,0,13.7,6.4,13.7,15.8
		c0,11.1-7.1,16.1-13.7,16.1h-7.6V248.5z M405.4,285.4c0-5.5,2.7-10.4,6.8-13.5v-62.9H386v15.2h8.7v8.8h-9.9
		c-16.3,0-29.1,13.9-29.1,31.7c0,18.1,11.9,31.2,28.2,31.2h25.2C406.7,293,405.4,289.4,405.4,285.4z M394.7,280.6h-7.6
		c-8.2,0-13.7-6.4-13.7-16c0-11,7.1-16.1,13.7-16.1h7.6V280.6z M265.2,209.1h18.2v16h-18.2V209.1z"/>
</g>
</svg>
